M48
; DRILL file {KiCad 8.0.5-dirty} date 2024-10-27T18:43:16+0100
; FORMAT={-:-/ absolute / inch / decimal}
; #@! TF.CreationDate,2024-10-27T18:43:16+01:00
; #@! TF.GenerationSoftware,Kicad,Pcbnew,8.0.5-dirty
; #@! TF.FileFunction,Plated,1,2,PTH
FMAT,2
INCH
; #@! TA.AperFunction,Plated,PTH,ComponentDrill
T1C0.0079
; #@! TA.AperFunction,Plated,PTH,ViaDrill
T2C0.0118
; #@! TA.AperFunction,Plated,PTH,ComponentDrill
T3C0.0197
; #@! TA.AperFunction,Plated,PTH,ComponentDrill
T4C0.0295
; #@! TA.AperFunction,Plated,PTH,ComponentDrill
T5C0.0315
; #@! TA.AperFunction,Plated,PTH,ComponentDrill
T6C0.0394
; #@! TA.AperFunction,Plated,PTH,ComponentDrill
T7C0.0512
; #@! TA.AperFunction,Plated,PTH,ComponentDrill
T8C0.0689
; #@! TA.AperFunction,Plated,PTH,ComponentDrill
T9C0.0787
; #@! TA.AperFunction,Plated,PTH,ComponentDrill
T10C0.0984
%
G90
G05
T1
X3.9857Y-3.8761
X3.9857Y-3.9352
X3.9857Y-3.9943
X3.9857Y-5.1458
X3.9857Y-5.2049
X3.9857Y-5.2639
X4.0448Y-3.8761
X4.0448Y-3.9352
X4.0448Y-3.9943
X4.0448Y-5.1458
X4.0448Y-5.2049
X4.0448Y-5.2639
T2
X3.592Y-2.3309
X3.592Y-2.4883
X3.592Y-2.6065
X3.6098Y-3.4726
X3.6117Y-2.823
X3.6117Y-3.2364
X3.6117Y-3.2954
X3.6117Y-3.3545
X3.6275Y-3.4135
X3.6511Y-2.7639
X3.6905Y-2.9017
X3.6905Y-3.2364
X3.6905Y-3.2954
X3.6905Y-3.3545
X3.7298Y-2.3309
X3.7298Y-2.4883
X3.7298Y-2.6065
X3.7298Y-2.7246
X3.7298Y-3.4923
X3.7692Y-3.4529
X3.7889Y-2.823
X3.8086Y-3.4135
X3.8086Y-4.8702
X3.8086Y-4.9293
X3.848Y-2.9372
X3.848Y-5.1065
X3.8519Y-3.3348
X3.8676Y-4.8702
X3.8676Y-4.9293
X3.8755Y-3.3556
X3.8755Y-3.3939
X3.8873Y-5.0277
X3.8873Y-5.3998
X3.907Y-4.3191
X3.907Y-4.5159
X3.9149Y-5.3702
X3.9424Y-4.8702
X3.9424Y-4.9293
X3.9562Y-4.0631
X3.9661Y-2.9411
X3.97Y-2.7049
X3.97Y-2.8191
X3.9857Y-3.3939
X3.9857Y-3.4529
X3.9857Y-3.512
X3.9857Y-3.7679
X4.0015Y-2.6655
X4.0054Y-2.6065
X4.0271Y-3.4135
X4.0546Y-3.3643
X4.0842Y-2.5277
X4.1157Y-2.7049
X4.1157Y-2.823
X4.1235Y-4.26
X4.1235Y-4.3781
X4.135Y-3.7761
X4.1629Y-2.449
X4.1629Y-2.6261
X4.1629Y-2.9254
X4.1703Y-2.9587
X4.1858Y-5.1317
X4.1875Y-5.2728
X4.1924Y-4.0139
X4.1924Y-5.3053
X4.1929Y-3.8673
X4.2023Y-2.9017
X4.2023Y-3.3191
X4.2116Y-5.1059
X4.222Y-4.0336
X4.222Y-4.26
X4.222Y-4.3781
X4.2417Y-2.5474
X4.2417Y-2.6655
X4.2417Y-2.7836
X4.2417Y-2.8624
X4.2417Y-3.2088
X4.281Y-3.3191
X4.3023Y-2.5474
X4.3204Y-1.8387
X4.3204Y-1.9175
X4.3204Y-3.2088
X4.3204Y-4.26
X4.3204Y-4.3781
X4.3598Y-2.6261
X4.3598Y-2.7049
X4.3598Y-2.7836
X4.3598Y-3.3191
X4.3991Y-1.8387
X4.3991Y-1.9175
X4.3991Y-3.2088
X4.4188Y-4.26
X4.4188Y-4.3781
X4.4385Y-3.3191
X4.4779Y-1.8387
X4.4779Y-1.9175
X4.4779Y-3.2088
X4.4877Y-2.321
X4.4976Y-2.8978
X4.4976Y-2.9293
X4.5172Y-2.2915
X4.5172Y-2.8624
X4.5172Y-2.9608
X4.5369Y-1.9864
X4.5369Y-2.2128
X4.5763Y-1.9076
X4.6747Y-2.823
X4.7535Y-3.512
X4.7731Y-1.9962
X4.783Y-3.1675
X4.7928Y-3.8466
X4.7928Y-4.3205
X4.8027Y-3.512
X4.8125Y-1.7994
X4.842Y-3.2265
X4.8519Y-1.7994
X4.8519Y-1.9962
X4.8716Y-1.9175
X4.8716Y-1.9569
X4.8716Y-4.0041
X4.8716Y-4.0828
X4.8731Y-4.3205
X4.8794Y-3.3702
X4.8913Y-1.7994
X4.9011Y-3.1675
X4.9031Y-3.323
X4.9208Y-3.5002
X4.9267Y-3.3466
X4.9267Y-3.3899
X4.9306Y-1.9372
X4.9385Y-1.8466
X4.9503Y-4.1616
X4.9602Y-3.2265
X4.97Y-1.8811
X5.0094Y-2.5868
X5.0094Y-3.8427
X5.0094Y-3.8742
X5.0182Y-3.7767
X5.0192Y-3.5021
X5.0291Y-3.6891
X5.0291Y-4.1458
X5.0487Y-2.8033
X5.0586Y-4.3486
X5.0684Y-3.384
X5.0753Y-2.6783
X5.0783Y-3.6006
X5.0793Y-3.763
X5.0881Y-4.8899
X5.1078Y-2.2521
X5.1078Y-2.8624
X5.1078Y-3.6891
X5.1275Y-3.8171
X5.1275Y-4.3486
X5.1374Y-1.8486
X5.1472Y-2.6655
X5.1472Y-3.384
X5.1472Y-3.5415
X5.1669Y-4.8112
X5.1669Y-4.9687
X5.1865Y-2.3309
X5.2161Y-3.384
X5.2259Y-3.6498
X5.2456Y-4.8899
X5.2456Y-5.0474
X5.2653Y-3.5317
X5.285Y-2.3899
X5.2948Y-1.8486
X5.3046Y-2.2128
X5.3046Y-2.2817
X5.3145Y-3.5317
X5.3243Y-4.1222
X5.3243Y-4.9687
X5.3243Y-5.1261
X5.3455Y-4.2797
X5.3455Y-4.4372
X5.3637Y-3.5317
X5.3932Y-3.9254
X5.3932Y-4.0041
X5.3991Y-2.9608
X5.4031Y-5.0474
X5.4228Y-2.2128
X5.4228Y-2.3899
X5.4385Y-3.5317
X5.4523Y-1.8486
X5.4523Y-3.9254
X5.4523Y-4.0041
X5.4621Y-4.132
X5.4621Y-4.7128
X5.4621Y-4.7915
X5.4621Y-4.8702
X5.4621Y-4.949
X5.4818Y-2.9608
X5.5015Y-4.2797
X5.5113Y-4.0828
X5.5409Y-3.886
X5.5409Y-4.2797
X5.5802Y-2.2128
X5.5802Y-2.2817
X5.5802Y-2.3899
X5.5802Y-3.886
X5.5802Y-4.7128
X5.5802Y-4.7915
X5.5802Y-4.8702
X5.5802Y-4.949
X5.6098Y-1.8486
X5.6196Y-2.8624
X5.6196Y-2.9056
X5.6196Y-3.886
X5.659Y-2.2128
X5.659Y-2.3899
X5.659Y-2.5277
X5.659Y-2.7246
X5.659Y-2.823
X5.6747Y-2.8663
X5.6787Y-2.9017
X5.6787Y-4.26
X5.722Y-3.0986
X5.7377Y-4.0435
X5.7377Y-4.0828
X5.7574Y-3.4135
X5.7574Y-3.571
X5.7574Y-3.7679
X5.7574Y-3.8269
X5.7642Y-3.0733
X5.7771Y-4.0828
X5.7968Y-3.1576
X5.7968Y-3.2757
X5.8066Y-4.388
X5.8066Y-4.4962
X5.8066Y-4.6242
X5.8066Y-4.6931
X5.8165Y-3.4135
X5.8165Y-3.5317
X5.8165Y-3.8072
X5.8165Y-3.8466
X5.8165Y-3.886
X5.8755Y-3.571
X5.8755Y-3.8269
X5.8755Y-3.9844
X5.8755Y-4.2797
X5.8952Y-2.2718
X5.8952Y-2.3899
X5.8952Y-2.5277
X5.8952Y-2.7246
X5.8952Y-2.8624
X5.8952Y-3.4135
X5.8952Y-3.6498
X5.8952Y-3.7088
X5.8952Y-3.7679
X5.905Y-4.388
X5.905Y-4.4962
X5.905Y-4.6045
X5.905Y-4.6734
X5.9149Y-3.1576
X5.9149Y-3.2757
X5.9346Y-2.1931
X5.9543Y-3.6498
X5.9543Y-3.7088
X5.9543Y-3.7679
X5.9739Y-3.0002
X6.0133Y-3.6498
X6.0133Y-3.7088
X6.0133Y-3.7679
X6.033Y-2.9411
X6.033Y-3.0002
X6.0527Y-2.075
X6.0527Y-2.1931
X6.0674Y-2.9067
X6.092Y-3.6498
X6.1019Y-2.8722
X6.1117Y-2.2521
X6.1314Y-2.8427
X6.1609Y-2.8131
X6.1708Y-3.6498
X6.1905Y-2.7836
X6.22Y-2.7541
X6.2495Y-3.6498
X6.3666Y-4.8588
X6.3666Y-5.3288
X6.4066Y-4.8588
X6.4066Y-5.3288
X6.407Y-2.9608
X6.407Y-3.0002
X6.4464Y-2.882
X6.4464Y-2.9214
X6.4466Y-4.8588
X6.4816Y-4.2338
X6.4857Y-2.9805
X6.535Y-3.2069
X6.535Y-3.3348
X6.535Y-4.1813
X6.5666Y-5.3088
X6.5666Y-5.3488
X6.6166Y-4.6588
X6.6266Y-4.9588
X6.6432Y-2.9608
X6.6432Y-3.0002
X6.6432Y-3.2069
X6.6432Y-3.3348
X6.6566Y-4.9588
X6.6609Y-4.6458
X6.6826Y-2.882
X6.6826Y-2.9214
X6.6866Y-4.2688
X6.6866Y-4.3088
X6.6866Y-4.3488
X6.6866Y-4.3888
X6.6866Y-5.0588
X6.6866Y-5.1588
X6.7003Y-4.6852
X6.722Y-2.9805
X6.7397Y-4.7246
X6.7566Y-4.1838
X6.7566Y-4.2338
X6.781Y-2.9313
X6.781Y-2.9608
X6.781Y-2.9903
X6.7869Y-4.7246
X6.8066Y-4.1838
X6.8066Y-4.2338
X6.8066Y-4.8688
X6.8106Y-2.9313
X6.8106Y-2.9608
X6.8106Y-2.9903
X6.8316Y-5.4569
X6.8316Y-5.5592
X6.8381Y-4.6222
X6.8775Y-4.8688
X6.8814Y-5.4569
X6.8814Y-5.5592
X6.8972Y-4.6222
X6.8972Y-4.7443
X6.9066Y-5.0088
X6.9066Y-5.1688
X6.9066Y-5.3088
X6.9316Y-5.4569
X6.9316Y-5.5592
X6.9562Y-4.6222
X6.9562Y-4.7246
X6.9566Y-4.8688
X6.9816Y-5.3338
X6.9966Y-4.9588
X7.0066Y-4.0288
X7.0066Y-4.134
X7.0066Y-5.1338
X7.0153Y-4.7443
X7.0666Y-4.0288
X7.0666Y-4.134
X7.0816Y-5.3338
X7.0866Y-4.2688
X7.0866Y-4.3088
X7.0966Y-4.9588
X7.1066Y-5.1338
X7.1098Y-4.7482
X7.2266Y-4.0688
X7.2266Y-4.1288
X7.2266Y-4.2688
X7.2266Y-4.3088
X7.2316Y-3.9588
X7.2316Y-4.4088
X7.2816Y-3.9588
X7.2816Y-4.5588
X7.2816Y-4.6088
X7.3316Y-3.9588
X7.3816Y-3.9588
T3
X4.5133Y-4.2424
X4.5133Y-4.2947
X4.5133Y-4.3475
X4.5133Y-4.3999
X4.5133Y-4.6361
X4.5133Y-4.6884
X4.5133Y-4.7412
X4.5133Y-4.7936
X4.5153Y-3.4167
X4.5153Y-3.4691
X4.5153Y-3.5218
X4.5153Y-3.5742
X4.5153Y-3.8104
X4.5153Y-3.8628
X4.5153Y-3.9155
X4.5153Y-3.9679
X4.5287Y-4.1951
X4.5287Y-4.4471
X4.5287Y-4.5888
X4.5287Y-4.8408
X4.5306Y-3.3694
X4.5306Y-3.6214
X4.5306Y-3.7631
X4.5306Y-4.0151
X4.5692Y-4.1656
X4.5692Y-4.4766
X4.5692Y-4.5593
X4.5692Y-4.8703
X4.5712Y-3.3399
X4.5712Y-3.6509
X4.5712Y-3.7336
X4.5712Y-4.0446
X4.598Y-5.0273
X4.598Y-5.0797
X4.598Y-5.1324
X4.598Y-5.1848
X4.598Y-5.421
X4.598Y-5.4734
X4.598Y-5.5261
X4.598Y-5.5785
X4.6133Y-4.9801
X4.6133Y-5.232
X4.6133Y-5.3738
X4.6133Y-5.6257
X4.6188Y-4.1656
X4.6188Y-4.4766
X4.6188Y-4.5593
X4.6188Y-4.8703
X4.6208Y-3.3399
X4.6208Y-3.6509
X4.6208Y-3.7336
X4.6208Y-4.0446
X4.6539Y-4.9506
X4.6539Y-5.2616
X4.6539Y-5.3443
X4.6539Y-5.6553
X4.6594Y-4.1951
X4.6594Y-4.4471
X4.6594Y-4.5888
X4.6594Y-4.8408
X4.6613Y-3.3694
X4.6613Y-3.6214
X4.6613Y-3.7631
X4.6613Y-4.0151
X4.6747Y-4.2424
X4.6747Y-4.2947
X4.6747Y-4.3475
X4.6747Y-4.3999
X4.6747Y-4.6361
X4.6747Y-4.6884
X4.6747Y-4.7412
X4.6747Y-4.7936
X4.6767Y-3.4167
X4.6767Y-3.4691
X4.6767Y-3.5218
X4.6767Y-3.5742
X4.6767Y-3.8104
X4.6767Y-3.8628
X4.6767Y-3.9155
X4.6767Y-3.9679
X4.7035Y-4.9506
X4.7035Y-5.2616
X4.7035Y-5.3443
X4.7035Y-5.6553
X4.744Y-4.9801
X4.744Y-5.232
X4.744Y-5.3738
X4.744Y-5.6257
X4.7594Y-5.0273
X4.7594Y-5.0797
X4.7594Y-5.1324
X4.7594Y-5.1848
X4.7594Y-5.421
X4.7594Y-5.4734
X4.7594Y-5.5261
X4.7594Y-5.5785
T4
X5.3243Y-3.1183
X5.3243Y-3.3939
X5.4031Y-3.1183
X5.4031Y-3.3939
X5.4818Y-3.1183
X5.4818Y-3.3939
X5.5606Y-3.1183
X5.5606Y-3.3939
X6.2298Y-2.0553
X6.2298Y-2.2718
X6.3086Y-2.0553
X6.3086Y-2.2718
X6.3873Y-2.0553
X6.3873Y-2.2718
X6.4661Y-2.0553
X6.4661Y-2.2718
X6.5448Y-2.0553
X6.6235Y-2.0553
T5
X4.2121Y-4.1025
X4.2121Y-5.5002
X4.2515Y-3.7777
X4.3007Y-5.1852
X4.3042Y-4.6305
X4.3042Y-4.7093
X4.3499Y-3.7777
X4.3499Y-4.1025
X4.3499Y-5.5002
X4.3991Y-5.1852
X5.4365Y-4.4428
X5.4365Y-4.518
X5.4365Y-4.5932
X5.4385Y-3.6171
X5.4385Y-3.6923
X5.4385Y-3.7675
X5.5212Y-5.2277
X5.5212Y-5.3029
X5.5212Y-5.3781
X5.6491Y-3.9746
X5.6491Y-4.0533
X5.718Y-5.0868
X5.718Y-5.1655
X5.718Y-5.4411
X5.718Y-5.5198
X6.7417Y-2.3112
X6.8007Y-2.6261
X6.8794Y-2.3112
X6.8794Y-2.6261
T6
X3.6023Y-2.0368
X3.6023Y-2.1368
X3.6023Y-3.0368
X3.6023Y-3.1368
X3.7023Y-2.0368
X3.7023Y-2.1368
X3.7023Y-3.0368
X3.7023Y-3.1368
X3.7495Y-3.7482
X3.7495Y-3.8466
X3.7495Y-4.3781
X3.7495Y-4.4765
X3.7495Y-5.008
X3.7495Y-5.1065
X3.8023Y-2.0368
X3.8023Y-2.1368
X3.8023Y-3.0368
X3.8023Y-3.1368
X3.9023Y-2.0368
X3.9023Y-2.1368
X3.9023Y-3.0368
X3.9023Y-3.1368
X4.0023Y-2.0368
X4.0023Y-2.1368
X4.0023Y-3.0368
X4.0023Y-3.1368
X4.1023Y-2.0368
X4.1023Y-2.1368
X4.1023Y-3.0368
X4.1023Y-3.1368
X4.2023Y-2.0368
X4.2023Y-2.1368
X4.2023Y-3.0368
X4.2023Y-3.1368
X4.3023Y-2.0368
X4.3023Y-2.1368
X4.3023Y-3.0368
X4.3023Y-3.1368
X4.4023Y-2.0368
X4.4023Y-2.1368
X4.4023Y-3.0368
X4.4023Y-3.1368
X4.5023Y-2.0368
X4.5023Y-2.1368
X4.5023Y-3.0368
X4.5023Y-3.1368
X5.9936Y-4.1222
X5.9936Y-4.2206
X5.9936Y-4.5946
X5.9936Y-4.6931
X5.9936Y-5.0671
X5.9936Y-5.1655
X6.2023Y-1.8486
X6.2054Y-2.4293
X6.2692Y-3.5513
X6.3023Y-1.8486
X6.3054Y-2.4293
X6.3676Y-3.5513
X6.4023Y-1.8486
X6.4054Y-2.4293
X6.4066Y-4.2588
X6.4066Y-4.3588
X6.4066Y-4.4588
X6.4066Y-4.5588
X6.4066Y-4.6588
X6.4066Y-4.7588
X6.4066Y-4.9588
X6.4066Y-5.0588
X6.4066Y-5.1588
X6.4066Y-5.2588
X6.4066Y-5.4338
X6.4066Y-5.5838
X6.5023Y-1.8486
X6.5054Y-2.4293
X6.5066Y-5.4338
X6.5066Y-5.5838
X6.5816Y-4.5088
X6.5816Y-4.6088
X6.5816Y-4.7088
X6.5816Y-4.8088
X6.5816Y-4.9088
X6.5816Y-5.0088
X6.5816Y-5.1088
X6.5816Y-5.2088
X6.6023Y-1.8486
X6.6066Y-5.4338
X6.6066Y-5.5838
X6.7023Y-1.8486
X6.7023Y-3.5513
X6.7066Y-5.4338
X6.7066Y-5.5838
X6.8007Y-3.5513
X7.0566Y-5.4338
X7.0566Y-5.5838
X7.1519Y-2.2521
X7.1566Y-5.4338
X7.1566Y-5.5838
X7.1816Y-4.5088
X7.1816Y-4.6088
X7.1816Y-4.7088
X7.1816Y-4.8088
X7.1816Y-4.9088
X7.1816Y-5.0088
X7.1816Y-5.1088
X7.1816Y-5.2088
X7.2141Y-1.9569
X7.2519Y-2.2521
X7.2566Y-5.4338
X7.2566Y-5.5838
X7.3125Y-1.9569
X7.3519Y-2.2521
X7.3556Y-4.9588
X7.3556Y-5.0588
X7.3556Y-5.1588
X7.3556Y-5.2588
X7.3566Y-4.2588
X7.3566Y-4.3588
X7.3566Y-4.4588
X7.3566Y-5.4338
X7.3566Y-5.5838
T7
X4.0054Y-4.2797
X4.0054Y-4.7797
X7.1354Y-3.5513
X7.3322Y-3.5513
T8
X6.5753Y-3.9588
X6.7879Y-3.9588
T10
X7.2338Y-2.5159
X7.2338Y-2.7128
X7.2338Y-2.8702
X7.2338Y-3.0671
T9
G00X4.594Y-4.3999
M15
G01X4.594Y-4.2424
M16
G05
G00X4.594Y-4.7936
M15
G01X4.594Y-4.6361
M16
G05
G00X4.596Y-3.5742
M15
G01X4.596Y-3.4167
M16
G05
G00X4.596Y-3.9679
M15
G01X4.596Y-3.8104
M16
G05
G00X4.6787Y-5.1848
M15
G01X4.6787Y-5.0273
M16
G05
G00X4.6787Y-5.5785
M15
G01X4.6787Y-5.421
M16
G05
M30
