%TF.GenerationSoftware,KiCad,Pcbnew,8.0.5-dirty*%
%TF.CreationDate,2024-10-27T18:43:13+01:00*%
%TF.ProjectId,tank_mower_controller_V1,74616e6b-5f6d-46f7-9765-725f636f6e74,rev?*%
%TF.SameCoordinates,Original*%
%TF.FileFunction,Paste,Bot*%
%TF.FilePolarity,Positive*%
%FSLAX46Y46*%
G04 Gerber Fmt 4.6, Leading zero omitted, Abs format (unit mm)*
G04 Created by KiCad (PCBNEW 8.0.5-dirty) date 2024-10-27 18:43:13*
%MOMM*%
%LPD*%
G01*
G04 APERTURE LIST*
G04 Aperture macros list*
%AMRoundRect*
0 Rectangle with rounded corners*
0 $1 Rounding radius*
0 $2 $3 $4 $5 $6 $7 $8 $9 X,Y pos of 4 corners*
0 Add a 4 corners polygon primitive as box body*
4,1,4,$2,$3,$4,$5,$6,$7,$8,$9,$2,$3,0*
0 Add four circle primitives for the rounded corners*
1,1,$1+$1,$2,$3*
1,1,$1+$1,$4,$5*
1,1,$1+$1,$6,$7*
1,1,$1+$1,$8,$9*
0 Add four rect primitives between the rounded corners*
20,1,$1+$1,$2,$3,$4,$5,0*
20,1,$1+$1,$4,$5,$6,$7,0*
20,1,$1+$1,$6,$7,$8,$9,0*
20,1,$1+$1,$8,$9,$2,$3,0*%
G04 Aperture macros list end*
%ADD10RoundRect,0.250000X-0.350000X-0.450000X0.350000X-0.450000X0.350000X0.450000X-0.350000X0.450000X0*%
%ADD11RoundRect,0.250000X0.350000X0.450000X-0.350000X0.450000X-0.350000X-0.450000X0.350000X-0.450000X0*%
%ADD12RoundRect,0.250000X0.450000X-0.350000X0.450000X0.350000X-0.450000X0.350000X-0.450000X-0.350000X0*%
%ADD13RoundRect,0.250000X0.475000X-0.337500X0.475000X0.337500X-0.475000X0.337500X-0.475000X-0.337500X0*%
%ADD14RoundRect,0.250000X0.337500X0.475000X-0.337500X0.475000X-0.337500X-0.475000X0.337500X-0.475000X0*%
%ADD15R,1.200000X1.200000*%
%ADD16R,1.500000X1.600000*%
%ADD17RoundRect,0.250000X-0.337500X-0.475000X0.337500X-0.475000X0.337500X0.475000X-0.337500X0.475000X0*%
%ADD18RoundRect,0.150000X-0.587500X-0.150000X0.587500X-0.150000X0.587500X0.150000X-0.587500X0.150000X0*%
%ADD19RoundRect,0.232500X-0.757500X-0.232500X0.757500X-0.232500X0.757500X0.232500X-0.757500X0.232500X0*%
%ADD20RoundRect,0.100000X-0.687500X-0.100000X0.687500X-0.100000X0.687500X0.100000X-0.687500X0.100000X0*%
%ADD21RoundRect,0.250000X-0.450000X0.350000X-0.450000X-0.350000X0.450000X-0.350000X0.450000X0.350000X0*%
%ADD22RoundRect,0.250000X-0.475000X0.250000X-0.475000X-0.250000X0.475000X-0.250000X0.475000X0.250000X0*%
%ADD23RoundRect,0.100000X0.637500X0.100000X-0.637500X0.100000X-0.637500X-0.100000X0.637500X-0.100000X0*%
%ADD24RoundRect,0.250000X-0.475000X0.337500X-0.475000X-0.337500X0.475000X-0.337500X0.475000X0.337500X0*%
%ADD25RoundRect,0.150000X0.875000X0.150000X-0.875000X0.150000X-0.875000X-0.150000X0.875000X-0.150000X0*%
%ADD26R,1.300000X0.600000*%
G04 APERTURE END LIST*
D10*
%TO.C,R46*%
X121738000Y-99704000D03*
X123738000Y-99704000D03*
%TD*%
%TO.C,R25*%
X121738000Y-95704000D03*
X123738000Y-95704000D03*
%TD*%
D11*
%TO.C,R5*%
X141238000Y-83704000D03*
X139238000Y-83704000D03*
%TD*%
%TO.C,R21*%
X131775500Y-114704000D03*
X129775500Y-114704000D03*
%TD*%
%TO.C,R39*%
X131775500Y-106704000D03*
X129775500Y-106704000D03*
%TD*%
D12*
%TO.C,R53*%
X140238000Y-92704000D03*
X140238000Y-90704000D03*
%TD*%
D11*
%TO.C,R22*%
X127775500Y-116704000D03*
X125775500Y-116704000D03*
%TD*%
D10*
%TO.C,R23*%
X121738000Y-97704000D03*
X123738000Y-97704000D03*
%TD*%
D13*
%TO.C,C7*%
X96738000Y-59704000D03*
X96738000Y-57629000D03*
%TD*%
D11*
%TO.C,R44*%
X135738000Y-95704000D03*
X133738000Y-95704000D03*
%TD*%
D12*
%TO.C,R54*%
X179738000Y-61704000D03*
X179738000Y-59704000D03*
%TD*%
D11*
%TO.C,R41*%
X135775500Y-110704000D03*
X133775500Y-110704000D03*
%TD*%
D10*
%TO.C,R45*%
X133738000Y-91704000D03*
X135738000Y-91704000D03*
%TD*%
D11*
%TO.C,R19*%
X135775500Y-114704000D03*
X133775500Y-114704000D03*
%TD*%
D14*
%TO.C,C23*%
X168238000Y-49704000D03*
X166163000Y-49704000D03*
%TD*%
D11*
%TO.C,R20*%
X131738000Y-104704000D03*
X129738000Y-104704000D03*
%TD*%
D15*
%TO.C,R66*%
X136238000Y-119204000D03*
D16*
X132988000Y-120204000D03*
D15*
X136238000Y-121204000D03*
%TD*%
D17*
%TO.C,C10*%
X108450500Y-98204000D03*
X110525500Y-98204000D03*
%TD*%
D18*
%TO.C,Q12*%
X138450500Y-47904000D03*
X138450500Y-46004000D03*
X140325500Y-46954000D03*
%TD*%
D19*
%TO.C,U4*%
X101988000Y-131624000D03*
X101988000Y-132784000D03*
D20*
X99125500Y-134479000D03*
X99125500Y-133829000D03*
X99125500Y-133179000D03*
X99125500Y-132529000D03*
X99125500Y-131879000D03*
X99125500Y-131229000D03*
X99125500Y-130579000D03*
X99125500Y-129929000D03*
X104850500Y-129929000D03*
X104850500Y-130579000D03*
X104850500Y-131229000D03*
X104850500Y-131879000D03*
X104850500Y-132529000D03*
X104850500Y-133179000D03*
X104850500Y-133829000D03*
X104850500Y-134479000D03*
%TD*%
D18*
%TO.C,Q14*%
X130450500Y-47904000D03*
X130450500Y-46004000D03*
X132325500Y-46954000D03*
%TD*%
D11*
%TO.C,R6*%
X135738000Y-68704000D03*
X133738000Y-68704000D03*
%TD*%
D10*
%TO.C,R59*%
X121738000Y-91704000D03*
X123738000Y-91704000D03*
%TD*%
D11*
%TO.C,R10*%
X135738000Y-66704000D03*
X133738000Y-66704000D03*
%TD*%
D21*
%TO.C,R14*%
X131738000Y-64704000D03*
X131738000Y-66704000D03*
%TD*%
D12*
%TO.C,R7*%
X129738000Y-66704000D03*
X129738000Y-64704000D03*
%TD*%
D22*
%TO.C,C3*%
X142488000Y-112754000D03*
X142488000Y-114654000D03*
%TD*%
D10*
%TO.C,R48*%
X125738000Y-93704000D03*
X127738000Y-93704000D03*
%TD*%
D14*
%TO.C,C24*%
X168238000Y-55204000D03*
X166163000Y-55204000D03*
%TD*%
D11*
%TO.C,R43*%
X135738000Y-97704000D03*
X133738000Y-97704000D03*
%TD*%
D13*
%TO.C,C1*%
X121488000Y-73754000D03*
X121488000Y-71679000D03*
%TD*%
D23*
%TO.C,U11*%
X131638000Y-108429000D03*
X131638000Y-109079000D03*
X131638000Y-109729000D03*
X131638000Y-110379000D03*
X131638000Y-111029000D03*
X131638000Y-111679000D03*
X131638000Y-112329000D03*
X131638000Y-112979000D03*
X125913000Y-112979000D03*
X125913000Y-112329000D03*
X125913000Y-111679000D03*
X125913000Y-111029000D03*
X125913000Y-110379000D03*
X125913000Y-109729000D03*
X125913000Y-109079000D03*
X125913000Y-108429000D03*
%TD*%
D10*
%TO.C,R13*%
X133738000Y-74704000D03*
X135738000Y-74704000D03*
%TD*%
D21*
%TO.C,R3*%
X181738000Y-52704000D03*
X181738000Y-54704000D03*
%TD*%
D24*
%TO.C,C36*%
X142488000Y-92666500D03*
X142488000Y-94741500D03*
%TD*%
D23*
%TO.C,U5*%
X131600500Y-68429000D03*
X131600500Y-69079000D03*
X131600500Y-69729000D03*
X131600500Y-70379000D03*
X131600500Y-71029000D03*
X131600500Y-71679000D03*
X131600500Y-72329000D03*
X131600500Y-72979000D03*
X125875500Y-72979000D03*
X125875500Y-72329000D03*
X125875500Y-71679000D03*
X125875500Y-71029000D03*
X125875500Y-70379000D03*
X125875500Y-69729000D03*
X125875500Y-69079000D03*
X125875500Y-68429000D03*
%TD*%
D11*
%TO.C,R61*%
X123775500Y-116704000D03*
X121775500Y-116704000D03*
%TD*%
D24*
%TO.C,C34*%
X121738000Y-107666500D03*
X121738000Y-109741500D03*
%TD*%
D11*
%TO.C,R47*%
X135738000Y-93704000D03*
X133738000Y-93704000D03*
%TD*%
D14*
%TO.C,C26*%
X160275500Y-55204000D03*
X158200500Y-55204000D03*
%TD*%
D11*
%TO.C,R24*%
X127775500Y-114704000D03*
X125775500Y-114704000D03*
%TD*%
D13*
%TO.C,C40*%
X140238000Y-116741500D03*
X140238000Y-114666500D03*
%TD*%
D12*
%TO.C,R27*%
X159738000Y-66704000D03*
X159738000Y-64704000D03*
%TD*%
D11*
%TO.C,R65*%
X135738000Y-116704000D03*
X133738000Y-116704000D03*
%TD*%
D23*
%TO.C,U1*%
X131600500Y-95429000D03*
X131600500Y-96079000D03*
X131600500Y-96729000D03*
X131600500Y-97379000D03*
X131600500Y-98029000D03*
X131600500Y-98679000D03*
X131600500Y-99329000D03*
X131600500Y-99979000D03*
X125875500Y-99979000D03*
X125875500Y-99329000D03*
X125875500Y-98679000D03*
X125875500Y-98029000D03*
X125875500Y-97379000D03*
X125875500Y-96729000D03*
X125875500Y-96079000D03*
X125875500Y-95429000D03*
%TD*%
D13*
%TO.C,C39*%
X142738000Y-136779000D03*
X142738000Y-134704000D03*
%TD*%
D21*
%TO.C,R40*%
X137775500Y-108704000D03*
X137775500Y-110704000D03*
%TD*%
D10*
%TO.C,R12*%
X133738000Y-64704000D03*
X135738000Y-64704000D03*
%TD*%
D11*
%TO.C,R9*%
X127738000Y-74704000D03*
X125738000Y-74704000D03*
%TD*%
D10*
%TO.C,R62*%
X121775500Y-114704000D03*
X123775500Y-114704000D03*
%TD*%
D12*
%TO.C,R33*%
X135388000Y-51954000D03*
X135388000Y-49954000D03*
%TD*%
D14*
%TO.C,C31*%
X127775500Y-101704000D03*
X125700500Y-101704000D03*
%TD*%
D11*
%TO.C,R58*%
X131738000Y-101704000D03*
X129738000Y-101704000D03*
%TD*%
%TO.C,R26*%
X109238000Y-58204000D03*
X107238000Y-58204000D03*
%TD*%
D24*
%TO.C,C32*%
X123775500Y-107666500D03*
X123775500Y-109741500D03*
%TD*%
D13*
%TO.C,C6*%
X98738000Y-59704000D03*
X98738000Y-57629000D03*
%TD*%
D11*
%TO.C,R49*%
X131738000Y-93704000D03*
X129738000Y-93704000D03*
%TD*%
D10*
%TO.C,R63*%
X135775500Y-106704000D03*
X137775500Y-106704000D03*
%TD*%
D11*
%TO.C,R8*%
X135738000Y-72704000D03*
X133738000Y-72704000D03*
%TD*%
%TO.C,R57*%
X135738000Y-101704000D03*
X133738000Y-101704000D03*
%TD*%
D12*
%TO.C,R35*%
X133388000Y-51954000D03*
X133388000Y-49954000D03*
%TD*%
%TO.C,R31*%
X137388000Y-51954000D03*
X137388000Y-49954000D03*
%TD*%
%TO.C,R52*%
X142738000Y-132704000D03*
X142738000Y-130704000D03*
%TD*%
D11*
%TO.C,R18*%
X135775500Y-112704000D03*
X133775500Y-112704000D03*
%TD*%
D19*
%TO.C,U7*%
X101988000Y-99374000D03*
X101988000Y-100534000D03*
D20*
X99125500Y-102229000D03*
X99125500Y-101579000D03*
X99125500Y-100929000D03*
X99125500Y-100279000D03*
X99125500Y-99629000D03*
X99125500Y-98979000D03*
X99125500Y-98329000D03*
X99125500Y-97679000D03*
X104850500Y-97679000D03*
X104850500Y-98329000D03*
X104850500Y-98979000D03*
X104850500Y-99629000D03*
X104850500Y-100279000D03*
X104850500Y-100929000D03*
X104850500Y-101579000D03*
X104850500Y-102229000D03*
%TD*%
D14*
%TO.C,C33*%
X127775500Y-103704000D03*
X125700500Y-103704000D03*
%TD*%
D12*
%TO.C,R17*%
X140238000Y-112704000D03*
X140238000Y-110704000D03*
%TD*%
D11*
%TO.C,R15*%
X131738000Y-74704000D03*
X129738000Y-74704000D03*
%TD*%
D10*
%TO.C,R60*%
X125738000Y-91704000D03*
X127738000Y-91704000D03*
%TD*%
D18*
%TO.C,Q13*%
X134450500Y-47904000D03*
X134450500Y-46004000D03*
X136325500Y-46954000D03*
%TD*%
D11*
%TO.C,R11*%
X135738000Y-70704000D03*
X133738000Y-70704000D03*
%TD*%
D14*
%TO.C,C5*%
X110775500Y-134704000D03*
X108700500Y-134704000D03*
%TD*%
D10*
%TO.C,R56*%
X184238000Y-59704000D03*
X186238000Y-59704000D03*
%TD*%
%TO.C,R42*%
X133775500Y-108704000D03*
X135775500Y-108704000D03*
%TD*%
D24*
%TO.C,C35*%
X145238000Y-133416500D03*
X145238000Y-135491500D03*
%TD*%
D14*
%TO.C,C11*%
X110525500Y-100954000D03*
X108450500Y-100954000D03*
%TD*%
D13*
%TO.C,C2*%
X123738000Y-73741500D03*
X123738000Y-71666500D03*
%TD*%
D17*
%TO.C,C25*%
X162200500Y-55204000D03*
X164275500Y-55204000D03*
%TD*%
%TO.C,C4*%
X109450500Y-126704000D03*
X111525500Y-126704000D03*
%TD*%
D25*
%TO.C,U10*%
X128038000Y-46509000D03*
X128038000Y-47779000D03*
X128038000Y-49049000D03*
X128038000Y-50319000D03*
X128038000Y-51589000D03*
X128038000Y-52859000D03*
X128038000Y-54129000D03*
X128038000Y-55399000D03*
X118738000Y-55399000D03*
X118738000Y-54129000D03*
X118738000Y-52859000D03*
X118738000Y-51589000D03*
X118738000Y-50319000D03*
X118738000Y-49049000D03*
X118738000Y-47779000D03*
X118738000Y-46509000D03*
%TD*%
D26*
%TO.C,Q11*%
X111138000Y-58154000D03*
X111138000Y-56254000D03*
X113238000Y-57204000D03*
%TD*%
D11*
%TO.C,R4*%
X141238000Y-81704000D03*
X139238000Y-81704000D03*
%TD*%
D12*
%TO.C,R29*%
X139388000Y-51954000D03*
X139388000Y-49954000D03*
%TD*%
D13*
%TO.C,C41*%
X140238000Y-96779000D03*
X140238000Y-94704000D03*
%TD*%
D18*
%TO.C,Q10*%
X142450500Y-47904000D03*
X142450500Y-46004000D03*
X144325500Y-46954000D03*
%TD*%
D12*
%TO.C,R28*%
X157738000Y-66704000D03*
X157738000Y-64704000D03*
%TD*%
D10*
%TO.C,R51*%
X133738000Y-99704000D03*
X135738000Y-99704000D03*
%TD*%
D21*
%TO.C,R64*%
X133775500Y-104704000D03*
X133775500Y-106704000D03*
%TD*%
%TO.C,R55*%
X177738000Y-59704000D03*
X177738000Y-61704000D03*
%TD*%
D11*
%TO.C,R50*%
X123738000Y-93704000D03*
X121738000Y-93704000D03*
%TD*%
M02*
