  0
SECTION
  2
HEADER
  9
$ACADVER
  1
AC1009
  9
$INSBASE
 10
0.0
 20
0.0
 30
0.0
  9
$EXTMIN
 10
0.0
 20
0.0
 30
0.0
  9
$EXTMAX
 10
0.0
 20
0.0
 30
0.0
  0
ENDSEC
  0
SECTION
  2
TABLES
  0
TABLE
  2
VPORT
 70
0
  0
ENDTAB
  0
TABLE
  2
LTYPE
 70
1
  0
LTYPE
  2
CONTINUOUS
 70
0
  3
Solid line
 72
65
 73
0
 40
0.0
  0
ENDTAB
  0
TABLE
  2
LAYER
 70
1
  0
LAYER
  2
0
 70
64
 62
7
  6
continuous
  0
ENDTAB
  0
TABLE
  2
STYLE
 70
1
  0
STYLE
  2
STANDARD
 70
0
 40
0
 41
1.0
 50
0.0
 71
0
 42
1
 3
ARIAL.TTF
 4

  0
ENDTAB
  0
TABLE
  2
VIEW
 70
0
  0
ENDTAB
  0
ENDSEC
  0
SECTION
  2
BLOCKS
  0
BLOCK
  8
0
  2
BODY025
 70
0
 10
0.0
 20
0.0
 30
0.0
  3
BODY025
  0
POLYLINE
  8
0
 62
0
 70
0
 66
1
 10
0.0
 20
0.0
 30
0.0
  0
VERTEX
  8
0
 10
29.89048233552066
 20
-92.4124706206766
 30
0.0
  0
VERTEX
  8
0
 10
29.184058914822053
 20
-92.53967150877908
 30
0.0
  0
SEQEND
  8
0
  0
LINE
  8
0
 62
0
 10
29.18405891482228
 20
-92.53967150877926
 30
0.0
 11
19.54063075166352
 21
-97.5261736491999
 31
0.0
  0
POLYLINE
  8
0
 62
0
 70
0
 66
1
 10
0.0
 20
0.0
 30
0.0
  0
VERTEX
  8
0
 10
17.51043534889311
 20
-102.3858892963512
 30
0.0
  0
VERTEX
  8
0
 10
18.105065815230763
 20
-99.38438863189938
 30
0.0
  0
VERTEX
  8
0
 10
19.54063075166335
 20
-97.5261736491998
 30
0.0
  0
SEQEND
  8
0
  0
LINE
  8
0
 62
0
 10
17.510435348893004
 20
-104.2908521577774
 30
0.0
 11
17.51043534889301
 21
-102.38588929635077
 31
0.0
  0
LINE
  8
0
 62
0
 10
11.16607471523609
 20
-107.57144567121215
 30
0.0
 11
11.16607471523608
 21
-111.38137139406436
 31
0.0
  0
LINE
  8
0
 62
0
 10
17.51043534889312
 20
-104.29085215777741
 30
0.0
 11
11.166074715236096
 21
-107.57144567121203
 31
0.0
  0
LINE
  8
0
 62
0
 10
28.681906339014887
 20
-106.41341514430783
 30
0.0
 11
31.744467613636747
 21
-104.82980109205475
 31
0.0
  0
LINE
  8
0
 62
0
 10
29.814830895090598
 20
-106.61669142149702
 30
0.0
 11
28.681906339014724
 21
-106.41341514430805
 31
0.0
  0
LINE
  8
0
 62
0
 10
33.26132282552816
 20
-98.39458804351224
 30
0.0
 11
29.58296734515026
 21
-97.73459492727261
 31
0.0
  0
POLYLINE
  8
0
 62
0
 70
0
 66
1
 10
0.0
 20
0.0
 30
0.0
  0
VERTEX
  8
0
 10
29.582967345150255
 20
-97.73459492727261
 30
0.0
  0
VERTEX
  8
0
 10
27.120711598613063
 20
-96.42235752189875
 30
0.0
  0
SEQEND
  8
0
  0
POLYLINE
  8
0
 62
0
 70
0
 66
1
 10
0.0
 20
0.0
 30
0.0
  0
VERTEX
  8
0
 10
27.120711598613063
 20
-96.42235752189875
 30
0.0
  0
VERTEX
  8
0
 10
29.014512646080856
 20
-95.2289165604778
 30
0.0
  0
VERTEX
  8
0
 10
33.26132282552818
 20
-94.93953149618883
 30
0.0
  0
SEQEND
  8
0
  0
LINE
  8
0
 62
0
 10
11.166074715236057
 20
-111.38137139406444
 30
0.0
 11
28.68190633901485
 21
-115.93822945143873
 31
0.0
  0
LINE
  8
0
 62
0
 10
28.68190633901463
 20
-115.93822945143887
 30
0.0
 11
35.84619177335603
 21
-117.22368951495487
 31
0.0
  0
LINE
  8
0
 62
0
 10
66.29912281491018
 20
-101.47684065046852
 30
0.0
 11
35.8461917733564
 21
-117.22368951495467
 31
0.0
  0
LINE
  8
0
 62
0
 10
28.85147802423608
 20
-106.32573164037088
 30
0.0
 11
17.510435348893125
 21
-104.29085215777741
 31
0.0
  0
LINE
  8
0
 62
0
 10
11.166074715236096
 20
-107.57144567121202
 30
0.0
 11
28.681906339014944
 21
-112.12830372858639
 31
0.0
  0
LINE
  8
0
 62
0
 10
28.681906339014873
 20
-112.12830372858645
 30
0.0
 11
28.681906339014862
 21
-115.9382294514386
 31
0.0
  0
LINE
  8
0
 62
0
 10
28.681906339014887
 20
-106.4134151443078
 30
0.0
 11
28.681906339014873
 21
-112.12830372858645
 31
0.0
  0
LINE
  8
0
 62
0
 10
66.29912281491025
 20
-101.47684065046846
 30
0.0
 11
69.74561474534771
 21
-98.28530566266016
 31
0.0
  0
LINE
  8
0
 62
0
 10
69.74561474534784
 20
-98.2853056626602
 30
0.0
 11
69.74561474534786
 21
-27.344766266122647
 31
0.0
  0
LINE
  8
0
 62
0
 10
74.05372965839474
 20
-0.5348322516290551
 30
0.0
 11
74.05372965839474
 21
9.286468662148138
 31
0.0
  0
LINE
  8
0
 62
0
 10
35.846191773356416
 20
-117.2236895149547
 30
0.0
 11
39.292683703793855
 21
-114.03215452714643
 31
0.0
  0
LINE
  8
0
 62
0
 10
39.29268370379357
 20
-114.03215452714663
 30
0.0
 11
39.29268370379361
 21
-40.69108436223934
 31
0.0
  0
LINE
  8
0
 62
0
 10
33.261322825528396
 20
-103.42515643368844
 30
0.0
 11
29.814830895090864
 21
-106.61669142149681
 31
0.0
  0
LINE
  8
0
 62
0
 10
39.2926837037936
 20
-40.691084362238996
 30
0.0
 11
42.73917563423109
 21
-41.30947509728301
 31
0.0
  0
LINE
  8
0
 62
0
 10
33.261322825528154
 20
-103.42515643368856
 30
0.0
 11
33.26132282552826
 21
-9.129494793093372
 31
0.0
  0
LINE
  8
0
 62
0
 10
43.600798616840756
 20
-40.511591350330846
 30
0.0
 11
42.7391756342314
 21
-41.309475097282906
 31
0.0
  0
LINE
  8
0
 62
0
 10
9.135879312465606
 20
-4.800759647785109
 30
0.0
 11
33.26132282552792
 21
-9.129494793093208
 31
0.0
  0
LINE
  8
0
 62
0
 10
43.60079861684047
 20
-40.511591350330974
 30
0.0
 11
43.600798616840486
 21
-6.460380202338236
 31
0.0
  0
LINE
  8
0
 62
0
 10
9.135879312465612
 20
-0.27647285189792825
 30
0.0
 11
9.13587931246561
 21
-4.8007596477850605
 31
0.0
  0
LINE
  8
0
 62
0
 10
9.135879312466113
 20
-0.27647285189775045
 30
0.0
 11
43.600798616840805
 21
-6.460380202337988
 31
0.0
  0
LINE
  8
0
 62
0
 10
69.74561474534767
 20
-98.28530566266019
 30
0.0
 11
60.64803420742328
 21
-102.98955648067526
 31
0.0
  0
POLYLINE
  8
0
 62
0
 70
0
 66
1
 10
0.0
 20
0.0
 30
0.0
  0
VERTEX
  8
0
 10
58.54579092346721
 20
-104.07660150841551
 30
0.0
  0
VERTEX
  8
0
 10
58.555771133037915
 20
-104.26248451923054
 30
0.0
  0
SEQEND
  8
0
  0
POLYLINE
  8
0
 62
0
 70
0
 66
1
 10
0.0
 20
0.0
 30
0.0
  0
VERTEX
  8
0
 10
58.555771133037915
 20
-104.26248451923054
 30
0.0
  0
VERTEX
  8
0
 10
60.64803420742325
 20
-102.98955648067529
 30
0.0
  0
SEQEND
  8
0
  0
LINE
  8
0
 62
0
 10
58.54579092346715
 20
-104.07660150841554
 30
0.0
 11
50.50858071180413
 21
-108.23254742779082
 31
0.0
  0
POLYLINE
  8
0
 62
0
 70
0
 66
1
 10
0.0
 20
0.0
 30
0.0
  0
VERTEX
  8
0
 10
48.38923074313309
 20
-109.32843811897173
 30
0.0
  0
VERTEX
  8
0
 10
48.395675724615174
 20
-109.52109260703648
 30
0.0
  0
SEQEND
  8
0
  0
POLYLINE
  8
0
 62
0
 70
0
 66
1
 10
0.0
 20
0.0
 30
0.0
  0
VERTEX
  8
0
 10
48.395675724615174
 20
-109.52109260703648
 30
0.0
  0
VERTEX
  8
0
 10
50.5085807118041
 20
-108.23254742779072
 30
0.0
  0
SEQEND
  8
0
  0
LINE
  8
0
 62
0
 10
48.38923074313229
 20
-109.32843811897226
 30
0.0
 11
39.29268370379389
 21
-114.03215452714635
 31
0.0
  0
POLYLINE
  8
0
 62
0
 70
0
 66
1
 10
0.0
 20
0.0
 30
0.0
  0
VERTEX
  8
0
 10
47.84129069129568
 20
-107.93287605007626
 30
0.0
  0
VERTEX
  8
0
 10
48.47165181581259
 20
-104.41966926059524
 30
0.0
  0
SEQEND
  8
0
  0
POLYLINE
  8
0
 62
0
 70
0
 66
1
 10
0.0
 20
0.0
 30
0.0
  0
VERTEX
  8
0
 10
57.989297529272704
 20
-102.67209895676723
 30
0.0
  0
VERTEX
  8
0
 10
58.61965865378961
 20
-99.15889216728615
 30
0.0
  0
SEQEND
  8
0
  0
LINE
  8
0
 62
0
 10
61.17650961361935
 20
-62.81663282155364
 30
0.0
 11
61.176509613619416
 21
-10.468808515508528
 31
0.0
  0
LINE
  8
0
 62
0
 10
64.67012623842217
 20
-27.568710308500542
 30
0.0
 11
64.67012623842213
 21
-62.81052324488455
 31
0.0
  0
LINE
  8
0
 62
0
 10
64.67012623842211
 20
-62.810523244884486
 30
0.0
 11
44.368172210719585
 21
-73.30842248787526
 31
0.0
  0
LINE
  8
0
 62
0
 10
44.36817221071953
 20
-73.30842248787525
 30
0.0
 11
44.36817221071956
 21
-40.46714031986124
 31
0.0
  0
POLYLINE
  8
0
 62
0
 70
0
 66
1
 10
0.0
 20
0.0
 30
0.0
  0
VERTEX
  8
0
 10
49.44890572746815
 20
-103.31260453115979
 30
0.0
  0
VERTEX
  8
0
 10
47.8987116001372
 20
-106.15172981321668
 30
0.0
  0
VERTEX
  8
0
 10
48.389230743132494
 20
-109.32843811897152
 30
0.0
  0
SEQEND
  8
0
  0
POLYLINE
  8
0
 62
0
 70
0
 66
1
 10
0.0
 20
0.0
 30
0.0
  0
VERTEX
  8
0
 10
50.50858071180378
 20
-108.23254742779035
 30
0.0
  0
VERTEX
  8
0
 10
51.07434682241567
 20
-105.04053393721352
 30
0.0
  0
VERTEX
  8
0
 10
50.02287475678576
 20
-103.20925380957652
 30
0.0
  0
SEQEND
  8
0
  0
POLYLINE
  8
0
 62
0
 70
0
 66
1
 10
0.0
 20
0.0
 30
0.0
  0
VERTEX
  8
0
 10
50.02287475678576
 20
-103.20925380957652
 30
0.0
  0
VERTEX
  8
0
 10
49.44890572746815
 20
-103.31260453115979
 30
0.0
  0
SEQEND
  8
0
  0
POLYLINE
  8
0
 62
0
 70
0
 66
1
 10
0.0
 20
0.0
 30
0.0
  0
VERTEX
  8
0
 10
59.596912565445166
 20
-98.05182743785073
 30
0.0
  0
VERTEX
  8
0
 10
58.04482528585633
 20
-100.90175178818096
 30
0.0
  0
VERTEX
  8
0
 10
58.54579092346711
 20
-104.0766015084155
 30
0.0
  0
SEQEND
  8
0
  0
POLYLINE
  8
0
 62
0
 70
0
 66
1
 10
0.0
 20
0.0
 30
0.0
  0
VERTEX
  8
0
 10
60.6480342074232
 20
-102.98955648067523
 30
0.0
  0
VERTEX
  8
0
 10
61.22329202851973
 20
-99.7895651265383
 30
0.0
  0
VERTEX
  8
0
 10
60.170881594762776
 20
-97.94847671626746
 30
0.0
  0
SEQEND
  8
0
  0
POLYLINE
  8
0
 62
0
 70
0
 66
1
 10
0.0
 20
0.0
 30
0.0
  0
VERTEX
  8
0
 10
60.170881594762776
 20
-97.94847671626746
 30
0.0
  0
VERTEX
  8
0
 10
59.596912565445166
 20
-98.05182743785073
 30
0.0
  0
SEQEND
  8
0
  0
LINE
  8
0
 62
0
 10
9.135879312466082
 20
-0.27647285189775705
 30
0.0
 11
11.37177059292414
 21
5.880207478355461
 31
0.0
  0
LINE
  8
0
 62
0
 10
16.749112072854505
 20
8.660766875467491
 30
0.0
 11
11.3717705929241
 21
5.880207478355484
 31
0.0
  0
POLYLINE
  8
0
 62
0
 70
0
 66
1
 10
0.0
 20
0.0
 30
0.0
  0
VERTEX
  8
0
 10
31.97557759363141
 20
16.53419130771063
 30
0.0
  0
VERTEX
  8
0
 10
29.38027515313541
 20
12.370904329958307
 30
0.0
  0
VERTEX
  8
0
 10
26.50460628163361
 20
9.284635166187272
 30
0.0
  0
VERTEX
  8
0
 10
23.50924300262169
 20
7.447822693665202
 30
0.0
  0
SEQEND
  8
0
  0
LINE
  8
0
 62
0
 10
37.35291907356182
 20
19.314750704822586
 30
0.0
 11
31.975577593631424
 21
16.534191307710582
 31
0.0
  0
LINE
  8
0
 62
0
 10
71.5631100992971
 20
-26.404961010218315
 30
0.0
 11
68.11661816885966
 21
-28.187101043544338
 31
0.0
  0
LINE
  8
0
 62
0
 10
68.11661816885966
 20
-28.187101043544345
 30
0.0
 11
64.67012623842218
 21
-27.56871030850033
 31
0.0
  0
LINE
  8
0
 62
0
 10
37.35291907356183
 20
19.314750704822586
 30
0.0
 11
68.37134644749908
 21
13.74923408942637
 31
0.0
  0
LINE
  8
0
 62
0
 10
68.37134644749914
 20
13.74923408942636
 30
0.0
 11
73.52137459161891
 21
10.20179596982299
 31
0.0
  0
LINE
  8
0
 62
0
 10
74.05372965839463
 20
9.286468662148167
 30
0.0
 11
73.5213745916189
 21
10.20179596982299
 31
0.0
  0
LINE
  8
0
 62
0
 10
71.5631100992971
 20
-26.05261227159776
 30
0.0
 11
68.97824115146904
 21
-27.38921729659227
 31
0.0
  0
LINE
  8
0
 62
0
 10
68.97824115146898
 20
-27.38921729659232
 30
0.0
 11
68.1166181688596
 21
-28.18710104354439
 31
0.0
  0
LINE
  8
0
 62
0
 10
73.52137459161894
 20
10.201795969823017
 30
0.0
 11
62.38010609246576
 21
4.440778385819901
 31
0.0
  0
POLYLINE
  8
0
 62
0
 70
0
 66
1
 10
0.0
 20
0.0
 30
0.0
  0
VERTEX
  8
0
 10
62.38010609246571
 20
4.440778385819897
 30
0.0
  0
VERTEX
  8
0
 10
58.82726413761772
 20
1.65116458758337
 30
0.0
  0
VERTEX
  8
0
 10
55.27442218276974
 20
0.7665136507730672
 30
0.0
  0
SEQEND
  8
0
  0
LINE
  8
0
 62
0
 10
55.27442218276976
 20
0.7665136507730708
 30
0.0
 11
44.13315368361661
 21
-4.994503933230028
 31
0.0
  0
LINE
  8
0
 62
0
 10
43.60079861684092
 20
-6.4603802023378885
 30
0.0
 11
44.133153683616584
 21
-4.9945039332301535
 31
0.0
  0
LINE
  8
0
 62
0
 10
48.67628712376644
 20
-37.88711653958311
 30
0.0
 11
43.60079861684081
 21
-40.5115913503308
 31
0.0
  0
LINE
  8
0
 62
0
 10
48.67628712376646
 20
-19.10857025227818
 30
0.0
 11
48.676287123766436
 21
-37.88711653958285
 31
0.0
  0
LINE
  8
0
 62
0
 10
46.64609172099602
 20
-9.464672245109593
 30
0.0
 11
46.64609172099601
 21
-18.744300132764817
 31
0.0
  0
POLYLINE
  8
0
 62
0
 70
0
 66
1
 10
0.0
 20
0.0
 30
0.0
  0
VERTEX
  8
0
 10
47.66107116349916
 20
-3.404092954370122
 30
0.0
  0
VERTEX
  8
0
 10
46.10128763591107
 20
-6.299033094099012
 30
0.0
  0
VERTEX
  8
0
 10
46.64609172099626
 20
-9.464672245109337
 30
0.0
  0
SEQEND
  8
0
  0
POLYLINE
  8
0
 62
0
 70
0
 66
1
 10
0.0
 20
0.0
 30
0.0
  0
VERTEX
  8
0
 10
48.67628712376647
 20
-8.414535793255055
 30
0.0
  0
VERTEX
  8
0
 10
49.291137454928
 20
-5.182588954798014
 30
0.0
  0
VERTEX
  8
0
 10
48.23504019281677
 20
-3.3007422327868547
 30
0.0
  0
SEQEND
  8
0
  0
POLYLINE
  8
0
 62
0
 70
0
 66
1
 10
0.0
 20
0.0
 30
0.0
  0
VERTEX
  8
0
 10
48.23504019281677
 20
-3.3007422327868547
 30
0.0
  0
VERTEX
  8
0
 10
47.66107116349916
 20
-3.404092954370122
 30
0.0
  0
SEQEND
  8
0
  0
LINE
  8
0
 62
0
 10
68.97824115146909
 20
-6.434625820904238
 30
0.0
 11
53.53921789871765
 21
-14.417961331191444
 31
0.0
  0
LINE
  8
0
 62
0
 10
68.97824115146902
 20
2.082252138628951
 30
0.0
 11
68.978241151469
 21
-6.434625820904393
 31
0.0
  0
POLYLINE
  8
0
 62
0
 70
0
 66
1
 10
0.0
 20
0.0
 30
0.0
  0
VERTEX
  8
0
 10
70.00151343464341
 20
8.134891543116694
 30
0.0
  0
VERTEX
  8
0
 10
68.44345357749968
 20
5.250195055954676
 30
0.0
  0
VERTEX
  8
0
 10
68.97824115146906
 20
2.082252138629106
 30
0.0
  0
SEQEND
  8
0
  0
POLYLINE
  8
0
 62
0
 70
0
 66
1
 10
0.0
 20
0.0
 30
0.0
  0
VERTEX
  8
0
 10
71.00843655423928
 20
3.108087769705008
 30
0.0
  0
VERTEX
  8
0
 10
71.6323753389989
 20
6.347072586783081
 30
0.0
  0
VERTEX
  8
0
 10
70.57548246396102
 20
8.238242264699963
 30
0.0
  0
SEQEND
  8
0
  0
POLYLINE
  8
0
 62
0
 70
0
 66
1
 10
0.0
 20
0.0
 30
0.0
  0
VERTEX
  8
0
 10
70.57548246396102
 20
8.238242264699963
 30
0.0
  0
VERTEX
  8
0
 10
70.00151343464341
 20
8.134891543116694
 30
0.0
  0
SEQEND
  8
0
  0
LINE
  8
0
 62
0
 10
68.97824115146906
 20
-27.389217296592264
 30
0.0
 11
68.97824115146909
 21
-7.196610965474889
 31
0.0
  0
LINE
  8
0
 62
0
 10
47.814664141157074
 20
-38.685000286535185
 30
0.0
 11
42.739175634231444
 21
-41.30947509728287
 31
0.0
  0
LINE
  8
0
 62
0
 10
48.67628712376646
 20
-37.88711653958308
 30
0.0
 11
47.814664141157095
 21
-38.68500028653516
 31
0.0
  0
LINE
  8
0
 62
0
 10
11.371770592924168
 20
5.880207478355472
 30
0.0
 11
42.390197966861365
 21
0.31469086295926463
 31
0.0
  0
LINE
  8
0
 62
0
 10
42.39019796686145
 20
0.31469086295922466
 30
0.0
 11
44.13315368361659
 21
-4.9945039332301135
 31
0.0
  0
LINE
  8
0
 62
0
 10
44.368172210719536
 20
-71.50802441159775
 30
0.0
 11
62.085257290593994
 21
-62.346730193601466
 31
0.0
  0
LINE
  8
0
 62
0
 10
62.08525729059402
 20
-62.34673019360138
 30
0.0
 11
62.085257290594065
 21
-23.294991534365032
 31
0.0
  0
LINE
  8
0
 62
0
 10
64.62300154405688
 20
-21.98275412899112
 30
0.0
 11
62.08525729059409
 21
-23.294991534364954
 31
0.0
  0
LINE
  8
0
 62
0
 10
65.53174922103156
 20
-22.14580721464348
 30
0.0
 11
64.62300154405683
 21
-21.982754128991072
 31
0.0
  0
POLYLINE
  8
0
 62
0
 70
0
 66
1
 10
0.0
 20
0.0
 30
0.0
  0
VERTEX
  8
0
 10
49.34940660045758
 20
3.351739957363229
 30
0.0
  0
VERTEX
  8
0
 10
48.015959823231086
 20
2.9742249316457614
 30
0.0
  0
SEQEND
  8
0
  0
POLYLINE
  8
0
 62
0
 70
0
 66
1
 10
0.0
 20
0.0
 30
0.0
  0
VERTEX
  8
0
 10
49.35317125080071
 20
3.353684365308621
 30
0.0
  0
VERTEX
  8
0
 10
49.34940660045758
 20
3.3517399573632263
 30
0.0
  0
SEQEND
  8
0
  0
POLYLINE
  8
0
 62
0
 70
0
 66
1
 10
0.0
 20
0.0
 30
0.0
  0
VERTEX
  8
0
 10
47.58280059121668
 20
5.921451372550214
 30
0.0
  0
VERTEX
  8
0
 10
50.04505631406087
 20
4.25039283770641
 30
0.0
  0
SEQEND
  8
0
  0
POLYLINE
  8
0
 62
0
 70
0
 66
1
 10
0.0
 20
0.0
 30
0.0
  0
VERTEX
  8
0
 10
50.04505631406087
 20
4.25039283770641
 30
0.0
  0
VERTEX
  8
0
 10
49.35317125080071
 20
3.353684365308622
 30
0.0
  0
SEQEND
  8
0
  0
LINE
  8
0
 62
0
 10
47.58280059121672
 20
5.92145137255021
 30
0.0
 11
34.6584558520762
 21
8.240416628965319
 31
0.0
  0
POLYLINE
  8
0
 62
0
 70
0
 66
1
 10
0.0
 20
0.0
 30
0.0
  0
VERTEX
  8
0
 10
27.80884149213773
 20
7.216680354570782
 30
0.0
  0
VERTEX
  8
0
 10
31.264012097429823
 20
8.225277957408556
 30
0.0
  0
VERTEX
  8
0
 10
34.65845585207618
 20
8.240416628965319
 30
0.0
  0
SEQEND
  8
0
  0
POLYLINE
  8
0
 62
0
 70
0
 66
1
 10
0.0
 20
0.0
 30
0.0
  0
VERTEX
  8
0
 10
27.20873842473962
 20
6.784036519331976
 30
0.0
  0
VERTEX
  8
0
 10
27.80884149213773
 20
7.216680354570783
 30
0.0
  0
SEQEND
  8
0
  0
LINE
  8
0
 62
0
 10
64.67012623842216
 20
-62.81052324488447
 30
0.0
 11
62.08525729059405
 21
-62.34673019360146
 31
0.0
  0
LINE
  8
0
 62
0
 10
62.08525729059407
 20
-23.294991534364975
 30
0.0
 11
65.53174922103156
 21
-23.913382269408995
 31
0.0
  0
LINE
  8
0
 62
0
 10
65.53174922103156
 20
-23.913382269409006
 30
0.0
 11
65.53174922103157
 21
-8.216765854230285
 31
0.0
  0
LINE
  8
0
 62
0
 10
68.97824115146904
 20
2.0822521386289266
 30
0.0
 11
69.20073074791442
 21
2.0423316897021677
 31
0.0
  0
LINE
  8
0
 62
0
 10
74.14797904712523
 20
-4.3142713448505345
 30
0.0
 11
69.20073074791438
 21
2.042331689702193
 31
0.0
  0
LINE
  8
0
 62
0
 10
74.14797904712523
 20
-32.698217980438486
 30
0.0
 11
74.14797904712525
 21
-4.314271344850663
 31
0.0
  0
LINE
  8
0
 62
0
 10
71.5631100992971
 20
-32.23442492915548
 30
0.0
 11
74.1479790471252
 21
-32.69821798043849
 31
0.0
  0
LINE
  8
0
 62
0
 10
70.27067562538306
 20
-29.14508411137472
 30
0.0
 11
71.56311009929712
 21
-32.23442492915547
 31
0.0
  0
LINE
  8
0
 62
0
 10
71.56311009929712
 20
-29.376980637016228
 30
0.0
 11
70.27067562538306
 21
-29.14508411137472
 31
0.0
  0
LINE
  8
0
 62
0
 10
71.56311009929712
 20
-7.660404016757871
 30
0.0
 11
71.5631100992971
 21
-29.376980637016125
 31
0.0
  0
LINE
  8
0
 62
0
 10
68.978241151469
 20
-7.196610965474861
 30
0.0
 11
71.5631100992971
 21
-7.66040401675787
 31
0.0
  0
LINE
  8
0
 62
0
 10
53.8460250194225
 20
-43.19611722342938
 30
0.0
 11
53.846025019422505
 21
-14.812170587841557
 31
0.0
  0
LINE
  8
0
 62
0
 10
53.846025019422505
 20
-14.812170587841441
 30
0.0
 11
48.897771418523334
 21
-8.454275864783073
 31
0.0
  0
LINE
  8
0
 62
0
 10
48.6762871237665
 20
-8.414535793255213
 30
0.0
 11
48.89777141852354
 21
-8.454275864782998
 31
0.0
  0
LINE
  8
0
 62
0
 10
16.749112072854558
 20
8.660766875467475
 30
0.0
 11
47.767539446791766
 21
3.095250260071265
 31
0.0
  0
LINE
  8
0
 62
0
 10
47.767539446791865
 20
3.095250260071312
 30
0.0
 11
42.39019796686147
 21
0.3146908629593099
 31
0.0
  0
LINE
  8
0
 62
0
 10
31.975577593631442
 20
16.534191307710575
 30
0.0
 11
62.994004967568685
 21
10.968674692314359
 31
0.0
  0
POLYLINE
  8
0
 62
0
 70
0
 66
1
 10
0.0
 20
0.0
 30
0.0
  0
VERTEX
  8
0
 10
62.380106092465695
 20
4.440778385819906
 30
0.0
  0
VERTEX
  8
0
 10
63.08935681615187
 20
7.352755242365171
 30
0.0
  0
VERTEX
  8
0
 10
62.994004967568685
 20
10.968674692314377
 30
0.0
  0
SEQEND
  8
0
  0
POLYLINE
  8
0
 62
0
 70
0
 66
1
 10
0.0
 20
0.0
 30
0.0
  0
VERTEX
  8
0
 10
47.76753944679186
 20
3.095250260071243
 30
0.0
  0
VERTEX
  8
0
 10
50.98051942948864
 20
1.7349600112581773
 30
0.0
  0
VERTEX
  8
0
 10
53.927670167892316
 20
0.9430815969079207
 30
0.0
  0
SEQEND
  8
0
  0
POLYLINE
  8
0
 62
0
 70
0
 66
1
 10
0.0
 20
0.0
 30
0.0
  0
VERTEX
  8
0
 10
53.927670167892316
 20
0.9430815969079207
 30
0.0
  0
VERTEX
  8
0
 10
55.274422182769726
 20
0.7665136507730503
 30
0.0
  0
SEQEND
  8
0
  0
LINE
  8
0
 62
0
 10
68.37134644749915
 20
13.7492340894264
 30
0.0
 11
62.99400496756876
 21
10.968674692314396
 31
0.0
  0
LINE
  8
0
 62
0
 10
46.64609172099601
 20
-18.74430013276485
 30
0.0
 11
49.23096066882411
 21
-19.208093184047858
 31
0.0
  0
LINE
  8
0
 62
0
 10
46.64609172099628
 20
-9.464672245109494
 30
0.0
 11
46.86788948759232
 21
-9.504468561678568
 31
0.0
  0
LINE
  8
0
 62
0
 10
51.81582961665224
 20
-15.861960512140534
 30
0.0
 11
46.867889487592066
 21
-9.504468561678674
 31
0.0
  0
LINE
  8
0
 62
0
 10
51.81582961665222
 20
-44.245907147728474
 30
0.0
 11
51.81582961665223
 21
-15.861960512140648
 31
0.0
  0
LINE
  8
0
 62
0
 10
49.230960668824096
 20
-43.782114096445454
 30
0.0
 11
51.815829616652195
 21
-44.24590714772847
 31
0.0
  0
LINE
  8
0
 62
0
 10
47.938526194910054
 20
-40.69277327866469
 30
0.0
 11
49.2309606688241
 21
-43.78211409644544
 31
0.0
  0
LINE
  8
0
 62
0
 10
49.23096066882411
 20
-40.9246698043062
 30
0.0
 11
47.93852619491006
 21
-40.692773278664696
 31
0.0
  0
LINE
  8
0
 62
0
 10
49.23096066882411
 20
-19.208093184047854
 30
0.0
 11
49.2309606688241
 21
-40.924669804306106
 31
0.0
  0
POLYLINE
  8
0
 62
0
 70
0
 66
1
 10
0.0
 20
0.0
 30
0.0
  0
VERTEX
  8
0
 10
47.32551986222893
 20
-9.704007225228917
 30
0.0
  0
VERTEX
  8
0
 10
48.67628712376647
 20
-8.414535793255055
 30
0.0
  0
SEQEND
  8
0
  0
POLYLINE
  8
0
 62
0
 70
0
 66
1
 10
0.0
 20
0.0
 30
0.0
  0
VERTEX
  8
0
 10
69.67026023345694
 20
1.8355351295133637
 30
0.0
  0
VERTEX
  8
0
 10
71.00843655423928
 20
3.108087769705008
 30
0.0
  0
SEQEND
  8
0
  0
LINE
  8
0
 62
0
 10
71.00843655423925
 20
3.108087769704847
 30
0.0
 11
71.25259541258195
 21
3.064279288813122
 31
0.0
  0
LINE
  8
0
 62
0
 10
76.17817444989552
 20
-3.264481420551446
 30
0.0
 11
71.25259541258198
 21
3.064279288813169
 31
0.0
  0
LINE
  8
0
 62
0
 10
76.17817444989551
 20
-31.648428056139405
 30
0.0
 11
76.17817444989552
 21
-3.264481420551583
 31
0.0
  0
POLYLINE
  8
0
 62
0
 70
0
 66
1
 10
0.0
 20
0.0
 30
0.0
  0
VERTEX
  8
0
 10
69.2007307479144
 20
2.0423316897022
 30
0.0
  0
VERTEX
  8
0
 10
70.07897229841845
 20
1.7235283311731715
 30
0.0
  0
SEQEND
  8
0
  0
POLYLINE
  8
0
 62
0
 70
0
 66
1
 10
0.0
 20
0.0
 30
0.0
  0
VERTEX
  8
0
 10
70.07897229841845
 20
1.7235283311731715
 30
0.0
  0
VERTEX
  8
0
 10
71.25259541258194
 20
3.0642792888131245
 30
0.0
  0
SEQEND
  8
0
  0
LINE
  8
0
 62
0
 10
74.14797904712546
 20
-4.314271344850462
 30
0.0
 11
76.1781744498957
 21
-3.2644814205513866
 31
0.0
  0
LINE
  8
0
 62
0
 10
74.14797904712546
 20
-32.6982179804384
 30
0.0
 11
76.1781744498957
 21
-31.648428056139327
 31
0.0
  0
LINE
  8
0
 62
0
 10
70.27067562538326
 20
-29.14508411137463
 30
0.0
 11
71.5631100992971
 21
-28.476781598877473
 31
0.0
  0
LINE
  8
0
 62
0
 10
47.93852619491024
 20
-40.69277327866458
 30
0.0
 11
49.2309606688241
 21
-40.02447076616742
 31
0.0
  0
LINE
  8
0
 62
0
 10
51.81582961665241
 20
-44.24590714772836
 30
0.0
 11
53.84602501942266
 21
-43.19611722342928
 31
0.0
  0
LINE
  8
0
 62
0
 10
51.81582961665243
 20
-15.861960512140431
 30
0.0
 11
53.84602501942268
 21
-14.812170587841356
 31
0.0
  0
POLYLINE
  8
0
 62
0
 70
0
 66
1
 10
0.0
 20
0.0
 30
0.0
  0
VERTEX
  8
0
 10
46.86788948759231
 20
-9.504468561678546
 30
0.0
  0
VERTEX
  8
0
 10
47.72677662816771
 20
-9.813347299309314
 30
0.0
  0
SEQEND
  8
0
  0
POLYLINE
  8
0
 62
0
 70
0
 66
1
 10
0.0
 20
0.0
 30
0.0
  0
VERTEX
  8
0
 10
47.72677662816771
 20
-9.813347299309314
 30
0.0
  0
VERTEX
  8
0
 10
48.8977714185235
 20
-8.454275864782971
 30
0.0
  0
SEQEND
  8
0
  0
LINE
  8
0
 62
0
 10
33.26132282552817
 20
-93.27123922389339
 30
0.0
 11
29.184058914822025
 21
-92.53967150877907
 31
0.0
  0
LINE
  8
0
 62
0
 10
33.26132282552816
 20
-99.98802443200235
 30
0.0
 11
19.54063075166329
 21
-97.52617364919978
 31
0.0
  0
LINE
  8
0
 62
0
 10
31.586472807971443
 20
-104.91149832910529
 30
0.0
 11
17.510435348893026
 21
-102.3858892963512
 31
0.0
  0
LINE
  8
0
 62
0
 10
47.58280059121669
 20
3.1283972393754595
 30
0.0
 11
47.582800591216696
 21
5.921451372550109
 31
0.0
  0
LINE
  8
0
 62
0
 10
34.65845585207619
 20
5.447362495790543
 30
0.0
 11
34.658455852076195
 21
8.240416628965335
 31
0.0
  0
LINE
  8
0
 62
0
 10
33.26132282552817
 20
-93.01728750996708
 30
0.0
 11
29.890482335520662
 21
-92.4124706206766
 31
0.0
  0
ENDBLK
  0
ENDSEC
  0
SECTION
  2
ENTITIES
  0
INSERT
  2
BODY025
  8
0
 62
0
 10
0.0
 20
0.0
 30
0.0
  0
ENDSEC
  0
EOF
