  0
SECTION
  2
HEADER
  9
$ACADVER
  1
AC1009
  9
$INSBASE
 10
0.0
 20
0.0
 30
0.0
  9
$EXTMIN
 10
0.0
 20
0.0
 30
0.0
  9
$EXTMAX
 10
0.0
 20
0.0
 30
0.0
  0
ENDSEC
  0
SECTION
  2
TABLES
  0
TABLE
  2
VPORT
 70
0
  0
ENDTAB
  0
TABLE
  2
LTYPE
 70
1
  0
LTYPE
  2
CONTINUOUS
 70
0
  3
Solid line
 72
65
 73
0
 40
0.0
  0
ENDTAB
  0
TABLE
  2
LAYER
 70
1
  0
LAYER
  2
0
 70
64
 62
7
  6
continuous
  0
ENDTAB
  0
TABLE
  2
STYLE
 70
1
  0
STYLE
  2
STANDARD
 70
0
 40
0
 41
1.0
 50
0.0
 71
0
 42
1
 3
ARIAL.TTF
 4

  0
ENDTAB
  0
TABLE
  2
VIEW
 70
0
  0
ENDTAB
  0
ENDSEC
  0
SECTION
  2
BLOCKS
  0
BLOCK
  8
0
  2
SKETCH025
 70
0
 10
0.0
 20
0.0
 30
0.0
  3
SKETCH025
  0
CIRCLE
  8
0
 62
7
 10
13.3
 20
17.7
 30
0.0
 40
7.0
  0
CIRCLE
  8
0
 62
7
 10
-38.7
 20
47.7
 30
0.0
 40
2.1
  0
CIRCLE
  8
0
 62
7
 10
-38.7
 20
107.7
 30
0.0
 40
2.1
  0
CIRCLE
  8
0
 62
7
 10
-38.7
 20
167.7
 30
0.0
 40
2.1
  0
ARC
  8
0
 62
7
 10
13.3
 20
17.7
 30
0.0
 40
22.5
 50
-135.93455676328665
 51
-0.0
  0
LINE
  8
0
 62
7
 10
-2.8672825816946848
 20
2.0517101917292084
 30
0.0
 11
-43.011275355118585
 21
43.527122717794455
 31
0.0
  0
ARC
  8
0
 62
7
 10
-38.7
 20
47.7
 30
0.0
 40
5.999999999999998
 50
-180.0
 51
-135.93455676328665
  0
LINE
  8
0
 62
7
 10
-44.69999999997391
 20
47.7
 30
0.0
 11
-44.69999999997391
 21
167.70001769596803
 31
0.0
  0
ARC
  8
0
 62
7
 10
-38.7
 20
167.7
 30
0.0
 40
6.000000000000005
 50
135.9345567632867
 51
179.99983101535344
  0
LINE
  8
0
 62
7
 10
-2.86728258169466
 20
213.34828980827078
 30
0.0
 11
-43.01127535511858
 21
171.87287728220554
 31
0.0
  0
ARC
  8
0
 62
7
 10
13.300000000000022
 20
197.7
 30
0.0
 40
22.5
 50
-0.0
 51
135.93455676328668
  0
LINE
  8
0
 62
7
 10
35.8
 20
17.7
 30
0.0
 11
35.80000000000002
 21
197.7
 31
0.0
  0
ARC
  8
0
 62
7
 10
28.125
 20
182.7
 30
0.0
 40
1.6000000000000016
 50
-180.0
 51
-0.0
  0
LINE
  8
0
 62
7
 10
26.525
 20
182.7
 30
0.0
 11
26.525
 21
207.7
 31
0.0
  0
ARC
  8
0
 62
7
 10
28.125
 20
207.7
 30
0.0
 40
1.6000000000000016
 50
-0.0
 51
-180.0
  0
LINE
  8
0
 62
7
 10
29.725
 20
207.7
 30
0.0
 11
29.725
 21
182.7
 31
0.0
  0
ARC
  8
0
 62
7
 10
-1.5249999999999968
 20
182.7
 30
0.0
 40
1.6000000000000016
 50
-180.0
 51
-0.0
  0
LINE
  8
0
 62
7
 10
-3.125
 20
182.7
 30
0.0
 11
-3.125
 21
207.7
 31
0.0
  0
ARC
  8
0
 62
7
 10
-1.5249999999999986
 20
207.7
 30
0.0
 40
1.6000000000000016
 50
-0.0
 51
-180.0
  0
LINE
  8
0
 62
7
 10
0.07500000000000284
 20
207.7
 30
0.0
 11
0.07500000000000459
 21
182.7
 31
0.0
  0
CIRCLE
  8
0
 62
7
 10
-1.5299999999999994
 20
23.7
 30
0.0
 40
1.6
  0
CIRCLE
  8
0
 62
7
 10
-1.5299999999999994
 20
11.7
 30
0.0
 40
1.6
  0
CIRCLE
  8
0
 62
7
 10
28.130000000000003
 20
11.7
 30
0.0
 40
1.6
  0
CIRCLE
  8
0
 62
7
 10
28.130000000000003
 20
23.7
 30
0.0
 40
1.6
  0
ARC
  8
0
 62
7
 10
13.3
 20
188.7
 30
0.0
 40
7.0
 50
-180.0
 51
-0.0
  0
LINE
  8
0
 62
7
 10
6.300000000000001
 20
188.7
 30
0.0
 11
6.300000000000001
 21
201.7
 31
0.0
  0
ARC
  8
0
 62
7
 10
13.3
 20
201.7
 30
0.0
 40
7.0
 50
-0.0
 51
-180.0
  0
LINE
  8
0
 62
7
 10
20.3
 20
201.7
 30
0.0
 11
20.3
 21
188.7
 31
0.0
  0
CIRCLE
  8
0
 62
7
 10
22.262230000000002
 20
37.8
 30
0.0
 40
2.0
  0
CIRCLE
  8
0
 62
7
 10
4.262230000000002
 20
37.8
 30
0.0
 40
2.0
  0
CIRCLE
  8
0
 62
7
 10
13.3
 20
29.0
 30
0.0
 40
2.25
  0
LINE
  8
0
 62
7
 10
20.3
 20
43.7
 30
0.0
 11
20.3
 21
71.7
 31
0.0
  0
LINE
  8
0
 62
7
 10
20.3
 20
71.7
 30
0.0
 11
6.300000000000001
 21
71.7
 31
0.0
  0
LINE
  8
0
 62
7
 10
6.300000000000001
 20
71.7
 30
0.0
 11
6.300000000000001
 21
43.7
 31
0.0
  0
LINE
  8
0
 62
7
 10
6.300000000000001
 20
43.7
 30
0.0
 11
20.3
 21
43.7
 31
0.0
  0
CIRCLE
  8
0
 62
7
 10
-14.199999999999985
 20
152.7
 30
0.0
 40
2.1
  0
CIRCLE
  8
0
 62
7
 10
-14.199999999999985
 20
122.7
 30
0.0
 40
2.1
  0
CIRCLE
  8
0
 62
7
 10
-14.199999999999985
 20
92.7
 30
0.0
 40
2.1
  0
CIRCLE
  8
0
 62
7
 10
-14.199999999999985
 20
62.7
 30
0.0
 40
2.1
  0
ENDBLK
  0
ENDSEC
  0
SECTION
  2
ENTITIES
  0
INSERT
  2
SKETCH025
  8
0
 62
7
 10
0.0
 20
0.0
 30
0.0
  0
ENDSEC
  0
EOF
